<svg xmlns="http://www.w3.org/2000/svg" xmlns:xlink="http://www.w3.org/1999/xlink" x="0px" y="0px" viewBox="0 0 127.276 231.89" style="enable-background:new 0 0 127.276 231.89;" xml:space="preserve">
    <g>
        <path style="stroke:#1c1c1c;stroke-width:2;stroke-miterlimit:10;" d="M38.13,226.015h41.196c3.531,0,6.398-2.863,6.398-6.398
            V126.89h21.403c3.281,0,6.027-2.48,6.363-5.742l3.609-35.019c0.188-1.801-0.402-3.598-1.613-4.942
            c-1.215-1.347-2.941-2.113-4.754-2.113H85.724V64.89c0-2.929,0.926-3.148,2.344-3.148h22.145c3.535,0,6.398-2.867,6.398-6.402v-34
            c0-3.524-2.848-6.383-6.371-6.399l-30.543-0.125c-21.402,0-32.824,9.418-38.637,17.317c-8.117,11.027-9.328,23.953-9.328,30.671
            v16.27H18.541c-3.535,0-6.399,2.863-6.399,6.398v35.02c0,3.531,2.864,6.398,6.399,6.398h13.191v92.727
            C31.732,223.152,34.595,226.015,38.13,226.015L38.13,226.015z M24.939,114.09V91.875H38.13c3.536,0,6.399-2.867,6.399-6.403V62.808
            c0-4.148,0.668-14.703,6.84-23.089c5.91-8.032,15.441-12.102,28.301-12.102l24.14,0.098v21.226H88.064
            c-7.535,0-15.141,4.934-15.141,15.949v20.586c0,3.532,2.864,6.399,6.399,6.399h24.316l-2.289,22.219H79.322
            c-3.535,0-6.399,2.863-6.399,6.398v92.727H44.529v-92.727c0-3.535-2.863-6.402-6.399-6.402H24.939z M24.939,114.09"/>
    </g>
</svg>
