<svg xmlns="http://www.w3.org/2000/svg" xmlns:xlink="http://www.w3.org/1999/xlink" x="0px" y="0px" viewBox="0 0 127.276 115.89" style="enable-background:new 0 0 127.276 115.89;" xml:space="preserve">
    <g>
        <path style="stroke:#1c1c1c;stroke-width:2;stroke-miterlimit:10;" d="M92.198,106.959H37.078
            c-11.829,0-21.454-9.625-21.454-21.454V30.385c0-11.829,9.625-21.454,21.454-21.454h55.119c11.829,0,21.454,9.625,21.454,21.454
            v55.119C113.652,97.334,104.027,106.959,92.198,106.959L92.198,106.959z M37.078,14.675c-8.663,0-15.71,7.047-15.71,15.71v55.119
            c0,8.663,7.047,15.71,15.71,15.71h55.119c8.663,0,15.71-7.047,15.71-15.71V30.385c0-8.663-7.047-15.71-15.71-15.71H37.078z
            M37.078,14.675"/>
        <path style="stroke:#1c1c1c;stroke-width:2;stroke-miterlimit:10;" d="M64.387,86.737c-15.064,0-27.32-12.256-27.32-27.32
            s12.256-27.32,27.32-27.32s27.32,12.256,27.32,27.32S79.451,86.737,64.387,86.737L64.387,86.737z M64.387,37.407
            c-12.137,0-22.011,9.874-22.011,22.011s9.874,22.011,22.011,22.011s22.011-9.874,22.011-22.011S76.524,37.407,64.387,37.407
            L64.387,37.407z M64.387,37.407"/>
        <path style="stroke:#1c1c1c;stroke-width:2;stroke-miterlimit:10;" d="M94.877,31.49c-0.646,0-1.299-0.164-1.898-0.509
            c-0.881-0.509-1.511-1.33-1.774-2.312c-0.263-0.983-0.129-2.01,0.38-2.891c0.509-0.88,1.33-1.51,2.312-1.773
            c0.982-0.264,2.008-0.128,2.889,0.38c0.881,0.509,1.512,1.33,1.775,2.312c0.263,0.982,0.128,2.008-0.381,2.889
            C97.476,30.807,96.193,31.49,94.877,31.49L94.877,31.49z M94.877,31.49"/>
    </g>
</svg>
