<svg xmlns="http://www.w3.org/2000/svg" xmlns:xlink="http://www.w3.org/1999/xlink" x="0px" y="0px" viewBox="0 0 64.302 61.03" style="enable-background:new 0 0 64.302 61.03;" xml:space="preserve">
    <g>
        <path style="stroke:#1c1c1c;stroke-miterlimit:10;" d="M49.754,18.418c-4.529,0-8.214-3.685-8.214-8.214
            c0-0.698-0.566-1.264-1.264-1.264h-6.771c-0.698,0-1.264,0.566-1.264,1.264v27.758c0,2.663-2.166,4.829-4.829,4.829
            c-2.663,0-4.829-2.166-4.829-4.829c0-2.663,2.166-4.829,4.829-4.829c0.698,0,1.264-0.566,1.264-1.264v-6.771
            c0-0.698-0.566-1.264-1.264-1.264c-7.79,0-14.128,6.338-14.128,14.128c0,7.79,6.338,14.128,14.128,14.128
            c7.79,0,14.128-6.338,14.128-14.128V25.675c2.516,1.342,5.316,2.042,8.214,2.042c0.698,0,1.264-0.566,1.264-1.264v-6.771
            C51.018,18.984,50.452,18.418,49.754,18.418L49.754,18.418z M48.49,25.136c-2.699-0.225-5.262-1.167-7.476-2.76
            c-0.385-0.277-0.892-0.315-1.315-0.099c-0.422,0.216-0.687,0.651-0.687,1.125v14.56c0,6.396-5.204,11.599-11.6,11.599
            c-6.396,0-11.599-5.203-11.599-11.599c0-5.969,4.532-10.899,10.335-11.531v4.282c-3.457,0.601-6.093,3.623-6.093,7.249
            c0,4.057,3.3,7.358,7.357,7.358c4.057,0,7.358-3.301,7.358-7.358V11.468h4.316c0.579,4.915,4.489,8.825,9.404,9.405V25.136z
            M48.49,25.136"/>
    </g>
</svg>
