<svg xmlns="http://www.w3.org/2000/svg" xmlns:xlink="http://www.w3.org/1999/xlink" x="0px" y="0px" viewBox="0 0 57.276 34.562" style="enable-background:new 0 0 57.276 34.562;" xml:space="preserve">
    <g>
        <path d="M32.529,16.613l-7.108-3.889c-0.409-0.224-0.892-0.215-1.292,0.022c-0.401,0.237-0.64,0.657-0.64,1.123v7.711
            c0,0.464,0.237,0.883,0.636,1.12c0.208,0.124,0.438,0.187,0.669,0.187c0.212,0,0.424-0.052,0.619-0.157l7.108-3.822
            c0.422-0.227,0.685-0.666,0.687-1.145C33.21,17.284,32.95,16.843,32.529,16.613L32.529,16.613z M25.374,20.611v-5.763l5.312,2.907
            L25.374,20.611z M25.374,20.611"/>
        <path d="M43.427,11.62l-0.001-0.015c-0.027-0.259-0.298-2.562-1.418-3.734c-1.294-1.378-2.762-1.545-3.467-1.626
            c-0.058-0.006-0.112-0.013-0.16-0.019l-0.056-0.006C34.07,5.911,27.647,5.869,27.583,5.869h-0.011
            c-0.064,0-6.488,0.043-10.779,0.352l-0.056,0.006c-0.046,0.006-0.096,0.012-0.151,0.018c-0.697,0.081-2.149,0.248-3.447,1.676
            c-1.067,1.159-1.375,3.413-1.406,3.666l-0.004,0.033c-0.01,0.108-0.237,2.673-0.237,5.249v2.407c0,2.575,0.227,5.141,0.237,5.249
            l0.002,0.016c0.027,0.255,0.298,2.516,1.413,3.688c1.217,1.332,2.756,1.508,3.583,1.603c0.131,0.015,0.243,0.028,0.32,0.041
            l0.074,0.01c2.456,0.234,10.156,0.349,10.482,0.353h0.02c0.064,0,6.488-0.043,10.741-0.352l0.056-0.006
            c0.054-0.007,0.114-0.014,0.18-0.02c0.694-0.074,2.137-0.227,3.417-1.635c1.067-1.16,1.375-3.413,1.406-3.667l0.004-0.033
            c0.01-0.108,0.237-2.673,0.237-5.249v-2.407C43.664,14.293,43.437,11.728,43.427,11.62L43.427,11.62z M41.778,19.276
            c0,2.384-0.208,4.839-0.228,5.064c-0.08,0.621-0.405,2.047-0.925,2.612c-0.801,0.881-1.624,0.969-2.225,1.032
            c-0.073,0.008-0.14,0.015-0.201,0.023c-4.114,0.297-10.295,0.343-10.58,0.345c-0.319-0.005-7.907-0.121-10.288-0.342
            c-0.122-0.02-0.254-0.035-0.393-0.051c-0.705-0.081-1.669-0.191-2.411-1.007l-0.018-0.018c-0.511-0.532-0.827-1.865-0.907-2.586
            c-0.015-0.17-0.229-2.654-0.229-5.071v-2.407c0-2.381,0.208-4.833,0.228-5.063c0.095-0.731,0.427-2.071,0.925-2.612
            c0.826-0.908,1.696-1.009,2.272-1.075c0.055-0.006,0.107-0.012,0.154-0.018C21.128,7.8,27.354,7.756,27.577,7.754
            C27.8,7.755,34.023,7.8,38.16,8.099c0.051,0.006,0.106,0.013,0.166,0.02c0.592,0.067,1.488,0.17,2.309,1.046l0.008,0.008
            c0.511,0.532,0.826,1.889,0.907,2.624c0.014,0.161,0.229,2.65,0.229,5.072V19.276z M41.778,19.276"/>
    </g>
</svg>
